<?xml version="1.0" encoding="UTF-8"?>
<svg xmlns="http://www.w3.org/2000/svg" xmlns:xlink="http://www.w3.org/1999/xlink" width="10pt" height="10pt" viewBox="0 0 10 10" version="1.1">
<g id="surface1">
<path style=" stroke:none;fill-rule:nonzero;fill:rgb(0%,0%,0%);fill-opacity:1;" d="M 0.515625 5.429688 L 0.171875 5.429688 C 0.078125 5.429688 0 5.507812 0 5.601562 C 0 5.699219 0.078125 5.777344 0.171875 5.777344 L 0.515625 5.777344 C 0.613281 5.777344 0.691406 5.699219 0.691406 5.601562 C 0.691406 5.507812 0.613281 5.429688 0.515625 5.429688 Z M 0.515625 5.429688 "/>
<path style=" stroke:none;fill-rule:nonzero;fill:rgb(0%,0%,0%);fill-opacity:1;" d="M 1.722656 5.429688 L 1.035156 5.429688 C 0.9375 5.429688 0.863281 5.507812 0.863281 5.601562 C 0.863281 5.699219 0.9375 5.777344 1.035156 5.777344 L 1.722656 5.777344 C 1.820312 5.777344 1.898438 5.699219 1.898438 5.601562 C 1.898438 5.507812 1.820312 5.429688 1.722656 5.429688 Z M 1.722656 5.429688 "/>
<path style=" stroke:none;fill-rule:nonzero;fill:rgb(0%,0%,0%);fill-opacity:1;" d="M 9.136719 5.429688 L 8.277344 5.429688 C 8.179688 5.429688 8.101562 5.507812 8.101562 5.601562 C 8.101562 5.699219 8.179688 5.777344 8.277344 5.777344 L 9.136719 5.777344 C 9.234375 5.777344 9.308594 5.699219 9.308594 5.601562 C 9.308594 5.507812 9.234375 5.429688 9.136719 5.429688 Z M 9.136719 5.429688 "/>
<path style=" stroke:none;fill-rule:nonzero;fill:rgb(0%,0%,0%);fill-opacity:1;" d="M 9.828125 5.429688 L 9.65625 5.429688 C 9.558594 5.429688 9.484375 5.507812 9.484375 5.601562 C 9.484375 5.699219 9.558594 5.777344 9.65625 5.777344 L 9.828125 5.777344 C 9.921875 5.777344 10 5.699219 10 5.601562 C 10 5.507812 9.921875 5.429688 9.828125 5.429688 Z M 9.828125 5.429688 "/>
<path style=" stroke:none;fill-rule:nonzero;fill:rgb(0%,0%,0%);fill-opacity:1;" d="M 5 1.292969 C 4.90625 1.292969 4.828125 1.371094 4.828125 1.464844 L 4.828125 2.328125 C 4.828125 2.421875 4.90625 2.5 5 2.5 C 5.09375 2.5 5.171875 2.421875 5.171875 2.328125 L 5.171875 1.464844 C 5.171875 1.371094 5.09375 1.292969 5 1.292969 Z M 5 1.292969 "/>
<path style=" stroke:none;fill-rule:nonzero;fill:rgb(0%,0%,0%);fill-opacity:1;" d="M 5 0.601562 C 4.90625 0.601562 4.828125 0.679688 4.828125 0.777344 L 4.828125 0.949219 C 4.828125 1.042969 4.90625 1.121094 5 1.121094 C 5.09375 1.121094 5.171875 1.042969 5.171875 0.949219 L 5.171875 0.777344 C 5.171875 0.679688 5.09375 0.601562 5 0.601562 Z M 5 0.601562 "/>
<path style=" stroke:none;fill-rule:nonzero;fill:rgb(0%,0%,0%);fill-opacity:1;" d="M 2.089844 4.25 C 2.070312 4.238281 2.050781 4.230469 2.027344 4.222656 L 1.445312 3.980469 C 1.359375 3.941406 1.257812 3.976562 1.214844 4.0625 C 1.171875 4.148438 1.210938 4.25 1.296875 4.292969 C 1.300781 4.296875 1.308594 4.296875 1.316406 4.300781 L 1.898438 4.535156 C 1.976562 4.589844 2.082031 4.566406 2.136719 4.488281 C 2.1875 4.410156 2.167969 4.300781 2.089844 4.25 Z M 2.089844 4.25 "/>
<path style=" stroke:none;fill-rule:nonzero;fill:rgb(0%,0%,0%);fill-opacity:1;" d="M 0.925781 3.769531 L 0.796875 3.71875 C 0.707031 3.679688 0.605469 3.726562 0.570312 3.8125 C 0.535156 3.902344 0.578125 4.003906 0.667969 4.039062 L 0.796875 4.09375 C 0.820312 4.101562 0.839844 4.105469 0.863281 4.101562 C 0.957031 4.105469 1.035156 4.027344 1.035156 3.933594 C 1.039062 3.863281 0.996094 3.796875 0.925781 3.769531 Z M 0.925781 3.769531 "/>
<path style=" stroke:none;fill-rule:nonzero;fill:rgb(0%,0%,0%);fill-opacity:1;" d="M 6.601562 1.609375 C 6.519531 1.582031 6.429688 1.621094 6.390625 1.699219 L 6.066406 2.5 C 6.03125 2.589844 6.074219 2.6875 6.160156 2.726562 C 6.25 2.761719 6.351562 2.71875 6.386719 2.632812 L 6.710938 1.828125 C 6.742188 1.738281 6.691406 1.640625 6.601562 1.609375 Z M 6.601562 1.609375 "/>
<path style=" stroke:none;fill-rule:nonzero;fill:rgb(0%,0%,0%);fill-opacity:1;" d="M 6.859375 0.976562 C 6.777344 0.945312 6.6875 0.984375 6.648438 1.0625 L 6.5625 1.269531 C 6.527344 1.359375 6.570312 1.460938 6.65625 1.496094 C 6.660156 1.496094 6.660156 1.496094 6.660156 1.496094 C 6.75 1.53125 6.847656 1.488281 6.882812 1.402344 L 6.96875 1.191406 C 7 1.101562 6.949219 1.003906 6.859375 0.976562 Z M 6.859375 0.976562 "/>
<path style=" stroke:none;fill-rule:nonzero;fill:rgb(0%,0%,0%);fill-opacity:1;" d="M 8.449219 4.222656 C 8.417969 4.132812 8.320312 4.082031 8.230469 4.113281 C 8.226562 4.113281 8.21875 4.117188 8.210938 4.121094 L 7.972656 4.222656 C 7.878906 4.242188 7.820312 4.335938 7.839844 4.429688 C 7.859375 4.519531 7.949219 4.582031 8.042969 4.5625 C 8.0625 4.558594 8.085938 4.546875 8.101562 4.535156 L 8.339844 4.441406 C 8.433594 4.410156 8.480469 4.3125 8.449219 4.222656 Z M 8.449219 4.222656 "/>
<path style=" stroke:none;fill-rule:nonzero;fill:rgb(0%,0%,0%);fill-opacity:1;" d="M 9.65625 3.730469 C 9.625 3.640625 9.527344 3.589844 9.4375 3.621094 C 9.433594 3.625 9.425781 3.625 9.417969 3.628906 L 8.730469 3.90625 C 8.636719 3.929688 8.582031 4.023438 8.605469 4.117188 C 8.628906 4.199219 8.707031 4.253906 8.792969 4.242188 C 8.816406 4.242188 8.839844 4.234375 8.859375 4.222656 L 9.546875 3.949219 C 9.636719 3.917969 9.6875 3.820312 9.65625 3.730469 Z M 9.65625 3.730469 "/>
<path style=" stroke:none;fill-rule:nonzero;fill:rgb(0%,0%,0%);fill-opacity:1;" d="M 3.933594 2.5 L 3.835938 2.261719 C 3.800781 2.171875 3.699219 2.128906 3.609375 2.164062 C 3.523438 2.203125 3.480469 2.304688 3.515625 2.390625 L 3.621094 2.632812 C 3.671875 2.710938 3.78125 2.730469 3.859375 2.679688 C 3.917969 2.640625 3.945312 2.570312 3.933594 2.5 Z M 3.933594 2.5 "/>
<path style=" stroke:none;fill-rule:nonzero;fill:rgb(0%,0%,0%);fill-opacity:1;" d="M 3.605469 1.699219 L 3.351562 1.0625 C 3.3125 0.976562 3.207031 0.941406 3.121094 0.980469 C 3.042969 1.019531 3.003906 1.109375 3.03125 1.191406 L 3.289062 1.828125 C 3.328125 1.914062 3.433594 1.949219 3.519531 1.910156 C 3.597656 1.871094 3.632812 1.78125 3.605469 1.699219 Z M 3.605469 1.699219 "/>
<path style=" stroke:none;fill-rule:nonzero;fill:rgb(0%,0%,0%);fill-opacity:1;" d="M 8.117188 2.433594 C 8.058594 2.398438 7.988281 2.398438 7.929688 2.433594 L 7.199219 3.164062 C 7.132812 3.234375 7.132812 3.339844 7.199219 3.410156 C 7.230469 3.441406 7.273438 3.460938 7.316406 3.460938 C 7.363281 3.460938 7.40625 3.441406 7.441406 3.410156 L 8.167969 2.671875 C 8.21875 2.59375 8.195312 2.484375 8.117188 2.433594 Z M 8.117188 2.433594 "/>
<path style=" stroke:none;fill-rule:nonzero;fill:rgb(0%,0%,0%);fill-opacity:1;" d="M 2.804688 3.164062 L 2.070312 2.433594 C 1.988281 2.382812 1.882812 2.40625 1.832031 2.488281 C 1.796875 2.542969 1.796875 2.617188 1.832031 2.671875 L 2.5625 3.410156 C 2.632812 3.46875 2.742188 3.460938 2.804688 3.390625 C 2.859375 3.324219 2.859375 3.230469 2.804688 3.164062 Z M 2.804688 3.164062 "/>
<path style=" stroke:none;fill-rule:nonzero;fill:rgb(0%,0%,0%);fill-opacity:1;" d="M 5.589844 2.917969 C 4.101562 2.589844 2.632812 3.535156 2.304688 5.023438 C 2.21875 5.410156 2.21875 5.8125 2.304688 6.203125 C 2.34375 6.386719 2.53125 6.507812 2.714844 6.464844 C 2.902344 6.425781 3.019531 6.242188 2.980469 6.054688 C 2.734375 4.9375 3.445312 3.835938 4.558594 3.59375 C 5.675781 3.351562 6.777344 4.058594 7.023438 5.175781 C 7.085938 5.464844 7.085938 5.765625 7.023438 6.054688 C 6.980469 6.242188 7.097656 6.425781 7.285156 6.464844 C 7.46875 6.507812 7.652344 6.386719 7.695312 6.203125 C 8.019531 4.714844 7.078125 3.242188 5.589844 2.917969 Z M 5.589844 2.917969 "/>
<path style=" stroke:none;fill-rule:nonzero;fill:rgb(0%,0%,0%);fill-opacity:1;" d="M 9.484375 6.808594 L 5.171875 6.808594 L 5.171875 5.332031 L 5.824219 5.984375 C 5.894531 6.054688 6.003906 6.054688 6.070312 5.988281 C 6.136719 5.921875 6.136719 5.8125 6.070312 5.742188 L 5.121094 4.792969 C 5.054688 4.726562 4.945312 4.726562 4.878906 4.792969 L 3.925781 5.75 C 3.855469 5.808594 3.84375 5.917969 3.90625 5.992188 C 3.96875 6.0625 4.078125 6.070312 4.148438 6.011719 C 4.15625 6.003906 4.164062 6 4.167969 5.992188 L 4.828125 5.328125 L 4.828125 6.808594 L 0.515625 6.808594 C 0.328125 6.808594 0.171875 6.964844 0.171875 7.15625 C 0.171875 7.34375 0.328125 7.5 0.515625 7.5 L 4.828125 7.5 L 4.828125 8.199219 C 4.828125 8.296875 4.90625 8.371094 5 8.371094 C 5.09375 8.371094 5.171875 8.296875 5.171875 8.199219 L 5.171875 7.5 L 9.484375 7.5 C 9.671875 7.5 9.828125 7.34375 9.828125 7.15625 C 9.828125 6.964844 9.671875 6.808594 9.484375 6.808594 Z M 9.484375 6.808594 "/>
<path style=" stroke:none;fill-rule:nonzero;fill:rgb(0%,0%,0%);fill-opacity:1;" d="M 5 8.707031 C 4.90625 8.707031 4.828125 8.785156 4.828125 8.878906 L 4.828125 9.222656 C 4.828125 9.320312 4.90625 9.398438 5 9.398438 C 5.09375 9.398438 5.171875 9.320312 5.171875 9.222656 L 5.171875 8.878906 C 5.171875 8.785156 5.09375 8.707031 5 8.707031 Z M 5 8.707031 "/>
</g>
</svg>
