<?xml version="1.0" encoding="UTF-8"?>
<svg xmlns="http://www.w3.org/2000/svg" xmlns:xlink="http://www.w3.org/1999/xlink" width="10pt" height="10pt" viewBox="0 0 10 10" version="1.1">
<g id="surface1">
<path style=" stroke:none;fill-rule:nonzero;fill:rgb(0%,0%,0%);fill-opacity:1;" d="M 0.847656 4.027344 L 0.339844 4.027344 C 0.152344 4.027344 0 4.179688 0 4.367188 C 0 4.554688 0.152344 4.707031 0.339844 4.707031 L 0.847656 4.707031 C 1.035156 4.707031 1.1875 4.554688 1.1875 4.367188 C 1.1875 4.179688 1.035156 4.027344 0.847656 4.027344 Z M 0.847656 4.027344 "/>
<path style=" stroke:none;fill-rule:nonzero;fill:rgb(0%,0%,0%);fill-opacity:1;" d="M 7.035156 1.148438 L 6.949219 1.148438 C 6.460938 1.148438 6 1.355469 5.679688 1.722656 C 5.539062 1.847656 5.53125 2.0625 5.660156 2.203125 C 5.785156 2.339844 6 2.347656 6.136719 2.21875 C 6.15625 2.203125 6.171875 2.183594 6.1875 2.164062 C 6.378906 1.949219 6.65625 1.824219 6.949219 1.824219 L 7.035156 1.824219 C 7.640625 1.824219 8.136719 2.320312 8.136719 2.925781 C 8.136719 3.535156 7.640625 4.027344 7.035156 4.027344 L 1.863281 4.027344 C 1.675781 4.027344 1.527344 4.179688 1.527344 4.367188 C 1.527344 4.554688 1.675781 4.707031 1.863281 4.707031 L 7.035156 4.707031 C 8.015625 4.707031 8.8125 3.910156 8.8125 2.925781 C 8.8125 1.945312 8.015625 1.148438 7.035156 1.148438 Z M 7.035156 1.148438 "/>
<path style=" stroke:none;fill-rule:nonzero;fill:rgb(0%,0%,0%);fill-opacity:1;" d="M 9.410156 2.335938 C 9.378906 2.246094 9.28125 2.203125 9.195312 2.234375 C 9.121094 2.261719 9.074219 2.335938 9.085938 2.414062 C 9.261719 3.0625 9.089844 3.757812 8.632812 4.253906 C 8.570312 4.320312 8.574219 4.429688 8.644531 4.492188 C 8.710938 4.554688 8.820312 4.550781 8.882812 4.484375 C 9.414062 3.90625 9.613281 3.09375 9.410156 2.335938 Z M 9.410156 2.335938 "/>
<path style=" stroke:none;fill-rule:nonzero;fill:rgb(0%,0%,0%);fill-opacity:1;" d="M 9.195312 1.796875 C 9.191406 1.792969 9.1875 1.789062 9.1875 1.785156 C 9.101562 1.636719 9 1.496094 8.882812 1.371094 C 8.832031 1.292969 8.726562 1.269531 8.648438 1.324219 C 8.570312 1.375 8.550781 1.480469 8.601562 1.558594 C 8.613281 1.574219 8.628906 1.589844 8.644531 1.601562 C 8.738281 1.710938 8.824219 1.828125 8.894531 1.953125 C 8.9375 2.035156 9.039062 2.066406 9.121094 2.023438 C 9.203125 1.980469 9.238281 1.878906 9.195312 1.796875 Z M 9.195312 1.796875 "/>
<path style=" stroke:none;fill-rule:nonzero;fill:rgb(0%,0%,0%);fill-opacity:1;" d="M 8.488281 1.027344 C 8.484375 1.023438 8.480469 1.019531 8.472656 1.015625 C 8.417969 0.976562 8.359375 0.941406 8.304688 0.910156 C 8.222656 0.863281 8.117188 0.890625 8.070312 0.972656 C 8.023438 1.054688 8.054688 1.160156 8.136719 1.207031 C 8.1875 1.234375 8.238281 1.265625 8.285156 1.296875 C 8.359375 1.351562 8.46875 1.339844 8.523438 1.261719 C 8.578125 1.1875 8.566406 1.082031 8.488281 1.027344 Z M 8.488281 1.027344 "/>
<path style=" stroke:none;fill-rule:nonzero;fill:rgb(0%,0%,0%);fill-opacity:1;" d="M 5.632812 2.335938 C 5.445312 2.3125 5.277344 2.445312 5.253906 2.632812 C 5.25 2.703125 5.25 2.773438 5.253906 2.84375 C 5.253906 3.03125 5.40625 3.179688 5.59375 3.179688 C 5.78125 3.179688 5.933594 3.03125 5.933594 2.84375 C 5.929688 2.800781 5.929688 2.757812 5.933594 2.714844 C 5.953125 2.527344 5.820312 2.355469 5.632812 2.335938 Z M 5.632812 2.335938 "/>
<path style=" stroke:none;fill-rule:nonzero;fill:rgb(0%,0%,0%);fill-opacity:1;" d="M 6.640625 5.867188 C 6.445312 5.773438 6.234375 5.722656 6.015625 5.722656 L 2.035156 5.722656 C 1.847656 5.722656 1.695312 5.875 1.695312 6.0625 C 1.695312 6.25 1.847656 6.402344 2.035156 6.402344 L 6.015625 6.402344 C 6.4375 6.402344 6.78125 6.742188 6.78125 7.164062 C 6.78125 7.277344 6.753906 7.390625 6.703125 7.496094 C 6.625 7.664062 6.695312 7.867188 6.863281 7.949219 C 7.035156 8.027344 7.234375 7.957031 7.316406 7.789062 C 7.660156 7.070312 7.359375 6.210938 6.640625 5.867188 Z M 6.640625 5.867188 "/>
<path style=" stroke:none;fill-rule:nonzero;fill:rgb(0%,0%,0%);fill-opacity:1;" d="M 6.757812 8.050781 C 6.757812 8.050781 6.757812 8.050781 6.757812 8.046875 C 6.683594 7.875 6.488281 7.792969 6.3125 7.867188 C 6.257812 7.890625 6.203125 7.90625 6.144531 7.917969 C 5.957031 7.933594 5.816406 8.09375 5.832031 8.28125 C 5.847656 8.46875 6.007812 8.609375 6.195312 8.59375 L 6.25 8.59375 C 6.367188 8.578125 6.480469 8.546875 6.589844 8.5 C 6.761719 8.421875 6.835938 8.222656 6.757812 8.050781 Z M 6.757812 8.050781 "/>
<path style=" stroke:none;fill-rule:nonzero;fill:rgb(0%,0%,0%);fill-opacity:1;" d="M 5.574219 7.824219 C 5.375 7.699219 5.253906 7.484375 5.253906 7.25 C 5.253906 7.0625 5.101562 6.910156 4.914062 6.910156 C 4.726562 6.910156 4.578125 7.0625 4.578125 7.25 C 4.574219 7.71875 4.816406 8.152344 5.214844 8.398438 C 5.371094 8.5 5.582031 8.449219 5.679688 8.292969 C 5.78125 8.132812 5.730469 7.921875 5.574219 7.824219 Z M 5.574219 7.824219 "/>
<path style=" stroke:none;fill-rule:nonzero;fill:rgb(0%,0%,0%);fill-opacity:1;" d="M 7.765625 6.011719 C 7.707031 5.933594 7.644531 5.859375 7.578125 5.789062 C 7.511719 5.722656 7.40625 5.722656 7.339844 5.789062 C 7.269531 5.851562 7.269531 5.960938 7.335938 6.027344 C 7.390625 6.085938 7.441406 6.144531 7.488281 6.207031 C 7.546875 6.28125 7.652344 6.296875 7.726562 6.238281 C 7.796875 6.183594 7.8125 6.085938 7.765625 6.011719 Z M 7.765625 6.011719 "/>
<path style=" stroke:none;fill-rule:nonzero;fill:rgb(0%,0%,0%);fill-opacity:1;" d="M 8.082031 6.703125 C 8.0625 6.609375 7.972656 6.550781 7.882812 6.570312 C 7.882812 6.570312 7.878906 6.570312 7.878906 6.570312 C 7.789062 6.59375 7.730469 6.683594 7.753906 6.773438 C 7.78125 6.898438 7.796875 7.027344 7.796875 7.15625 C 7.796875 7.496094 7.6875 7.824219 7.488281 8.097656 C 7.433594 8.171875 7.445312 8.277344 7.519531 8.335938 C 7.59375 8.394531 7.699219 8.378906 7.757812 8.304688 C 7.757812 8.304688 7.761719 8.300781 7.765625 8.296875 C 8.003906 7.964844 8.136719 7.566406 8.136719 7.15625 C 8.136719 7.003906 8.117188 6.851562 8.082031 6.703125 Z M 8.082031 6.703125 "/>
<path style=" stroke:none;fill-rule:nonzero;fill:rgb(0%,0%,0%);fill-opacity:1;" d="M 7.359375 8.5 C 7.300781 8.425781 7.195312 8.410156 7.117188 8.46875 C 6.996094 8.558594 6.859375 8.628906 6.714844 8.679688 C 6.628906 8.714844 6.582031 8.808594 6.613281 8.898438 C 6.636719 8.96875 6.707031 9.011719 6.78125 9.011719 C 6.800781 9.011719 6.820312 9.007812 6.835938 9 C 7.011719 8.9375 7.175781 8.851562 7.324219 8.742188 C 7.402344 8.683594 7.417969 8.578125 7.359375 8.5 Z M 7.359375 8.5 "/>
<path style=" stroke:none;fill-rule:nonzero;fill:rgb(0%,0%,0%);fill-opacity:1;" d="M 6.179688 8.773438 L 6.039062 8.773438 C 5.945312 8.773438 5.871094 8.851562 5.871094 8.945312 C 5.871094 9.039062 5.945312 9.113281 6.039062 9.113281 L 6.179688 9.113281 C 6.273438 9.113281 6.347656 9.039062 6.347656 8.945312 C 6.347656 8.851562 6.273438 8.773438 6.179688 8.773438 Z M 6.179688 8.773438 "/>
<path style=" stroke:none;fill-rule:nonzero;fill:rgb(0%,0%,0%);fill-opacity:1;" d="M 7.289062 5.046875 L 6.78125 5.046875 C 6.6875 5.046875 6.609375 5.121094 6.609375 5.214844 C 6.609375 5.308594 6.6875 5.386719 6.78125 5.386719 L 7.289062 5.386719 C 7.382812 5.386719 7.457031 5.308594 7.457031 5.214844 C 7.457031 5.121094 7.382812 5.046875 7.289062 5.046875 Z M 7.289062 5.046875 "/>
<path style=" stroke:none;fill-rule:nonzero;fill:rgb(0%,0%,0%);fill-opacity:1;" d="M 3.390625 5.046875 L 3.050781 5.046875 C 2.957031 5.046875 2.882812 5.121094 2.882812 5.214844 C 2.882812 5.308594 2.957031 5.386719 3.050781 5.386719 L 3.390625 5.386719 C 3.484375 5.386719 3.558594 5.308594 3.558594 5.214844 C 3.558594 5.121094 3.484375 5.046875 3.390625 5.046875 Z M 3.390625 5.046875 "/>
<path style=" stroke:none;fill-rule:nonzero;fill:rgb(0%,0%,0%);fill-opacity:1;" d="M 5.933594 5.046875 L 4.066406 5.046875 C 3.972656 5.046875 3.898438 5.121094 3.898438 5.214844 C 3.898438 5.308594 3.972656 5.386719 4.066406 5.386719 L 5.933594 5.386719 C 6.027344 5.386719 6.101562 5.308594 6.101562 5.214844 C 6.101562 5.121094 6.027344 5.046875 5.933594 5.046875 Z M 5.933594 5.046875 "/>
<path style=" stroke:none;fill-rule:nonzero;fill:rgb(0%,0%,0%);fill-opacity:1;" d="M 1.863281 5.046875 L 0.679688 5.046875 C 0.585938 5.046875 0.507812 5.121094 0.507812 5.214844 C 0.507812 5.308594 0.585938 5.386719 0.679688 5.386719 L 1.863281 5.386719 C 1.957031 5.386719 2.035156 5.308594 2.035156 5.214844 C 2.035156 5.121094 1.957031 5.046875 1.863281 5.046875 Z M 1.863281 5.046875 "/>
<path style=" stroke:none;fill-rule:nonzero;fill:rgb(0%,0%,0%);fill-opacity:1;" d="M 1.527344 6.570312 L 1.1875 6.570312 C 1.09375 6.570312 1.015625 6.648438 1.015625 6.742188 C 1.015625 6.835938 1.09375 6.910156 1.1875 6.910156 L 1.527344 6.910156 C 1.617188 6.910156 1.695312 6.835938 1.695312 6.742188 C 1.695312 6.648438 1.617188 6.570312 1.527344 6.570312 Z M 1.527344 6.570312 "/>
<path style=" stroke:none;fill-rule:nonzero;fill:rgb(0%,0%,0%);fill-opacity:1;" d="M 3.21875 6.570312 L 2.203125 6.570312 C 2.109375 6.570312 2.035156 6.648438 2.035156 6.742188 C 2.035156 6.835938 2.109375 6.910156 2.203125 6.910156 L 3.21875 6.910156 C 3.3125 6.910156 3.390625 6.835938 3.390625 6.742188 C 3.390625 6.648438 3.3125 6.570312 3.21875 6.570312 Z M 3.21875 6.570312 "/>
<path style=" stroke:none;fill-rule:nonzero;fill:rgb(0%,0%,0%);fill-opacity:1;" d="M 9.152344 5.046875 L 7.964844 5.046875 C 7.871094 5.046875 7.796875 5.121094 7.796875 5.214844 C 7.796875 5.308594 7.871094 5.386719 7.964844 5.386719 L 9.152344 5.386719 C 9.433594 5.386719 9.660156 5.613281 9.660156 5.894531 C 9.660156 6.175781 9.433594 6.402344 9.152344 6.402344 C 8.964844 6.402344 8.8125 6.25 8.8125 6.0625 C 8.8125 5.96875 8.738281 5.894531 8.644531 5.894531 C 8.550781 5.894531 8.472656 5.96875 8.472656 6.0625 C 8.472656 6.4375 8.777344 6.742188 9.152344 6.742188 C 9.621094 6.742188 10 6.363281 10 5.894531 C 10 5.425781 9.621094 5.046875 9.152344 5.046875 Z M 9.152344 5.046875 "/>
<path style=" stroke:none;fill-rule:nonzero;fill:rgb(0%,0%,0%);fill-opacity:1;" d="M 1.695312 3.519531 L 1.527344 3.519531 C 1.433594 3.519531 1.355469 3.597656 1.355469 3.691406 C 1.355469 3.785156 1.433594 3.859375 1.527344 3.859375 L 1.695312 3.859375 C 1.789062 3.859375 1.863281 3.785156 1.863281 3.691406 C 1.863281 3.597656 1.789062 3.519531 1.695312 3.519531 Z M 1.695312 3.519531 "/>
<path style=" stroke:none;fill-rule:nonzero;fill:rgb(0%,0%,0%);fill-opacity:1;" d="M 3.699219 2.65625 C 3.679688 2.65625 3.660156 2.65625 3.636719 2.65625 C 3.363281 2.65625 3.144531 2.878906 3.144531 3.152344 C 3.144531 3.246094 3.21875 3.320312 3.3125 3.320312 C 3.40625 3.320312 3.484375 3.246094 3.484375 3.152344 C 3.484375 3.066406 3.550781 2.996094 3.636719 2.996094 C 3.78125 3.007812 3.890625 3.136719 3.878906 3.28125 C 3.867188 3.410156 3.765625 3.511719 3.636719 3.519531 L 2.371094 3.519531 C 2.277344 3.519531 2.203125 3.597656 2.203125 3.691406 C 2.203125 3.785156 2.277344 3.859375 2.371094 3.859375 L 3.636719 3.859375 C 3.96875 3.878906 4.253906 3.621094 4.269531 3.289062 C 4.289062 2.957031 4.03125 2.675781 3.699219 2.65625 Z M 3.699219 2.65625 "/>
</g>
</svg>
